<svg xmlns="http://www.w3.org/2000/svg" viewBox="0 0 960 640" role="img" aria-label="Support Contact Panel Frame">

<defs>
  <linearGradient id="panelGrad" x1="0" x2="0" y1="0" y2="1">
    <stop offset="0" stop-color="#293146"/>
    <stop offset="1" stop-color="#171425"/>
  </linearGradient>
  <linearGradient id="purpleGrad" x1="0" x2="1" y1="0" y2="1">
    <stop offset="0" stop-color="#7d25c8"/>
    <stop offset="0.55" stop-color="#c22bea"/>
    <stop offset="1" stop-color="#4a178b"/>
  </linearGradient>
  <linearGradient id="paperGrad" x1="0" x2="0" y1="0" y2="1">
    <stop offset="0" stop-color="#ece0c9"/>
    <stop offset="1" stop-color="#c8b790"/>
  </linearGradient>
  <filter id="shadow" x="-20%" y="-20%" width="140%" height="140%">
    <feDropShadow dx="0" dy="8" stdDeviation="8" flood-color="#000" flood-opacity="0.45"/>
  </filter>
  <pattern id="circuit" width="72" height="72" patternUnits="userSpaceOnUse">
    <path d="M8 16h20v14h22M44 8v18h18M14 54h24v-12h20" fill="none" stroke="#46e1ff" stroke-opacity="0.16" stroke-width="2"/>
    <circle cx="28" cy="30" r="3" fill="#46e1ff" fill-opacity="0.18"/>
    <circle cx="58" cy="42" r="3" fill="#d6a856" fill-opacity="0.2"/>
  </pattern>
</defs>

<rect width="960" height="640" fill="none"/>
<rect x="42" y="42" width="876" height="556" rx="24" fill="#1c2733" stroke="#06080d" stroke-width="12" filter="url(#shadow)"/>
<rect x="54" y="54" width="852" height="532" rx="18" fill="url(#circuit)" opacity="0.26"/>
<rect x="54" y="54" width="852" height="532" rx="18" fill="none" stroke="#d6a856" stroke-width="5"/>
<rect x="76" y="82" width="808" height="70" rx="12" fill="#0f1320" stroke="#65e09a" stroke-width="3" opacity="0.95"/>
<path d="M92 196h776" stroke="#65e09a" stroke-width="3" opacity="0.75"/>
<path d="M92 516h776" stroke="#d6a856" stroke-width="3" opacity="0.55"/>
</svg>
